<?xml version="1.0" encoding="UTF-8"?>
<!-- Generated by Pixelmator Pro 3.4.3 -->
<svg width="900" height="900" viewBox="0 0 900 900" xmlns="http://www.w3.org/2000/svg">
    <g id="Group">
        <path id="Circular-Outer" fill="#1a1b1e" fill-rule="evenodd" stroke="none" d="M 450 900 C 201.472229 900 0 698.527893 0 450 C 0 201.472107 201.472229 0 450 0 C 698.527832 0 900 201.472107 900 450 C 900 698.527893 698.527832 900 450 900 Z M 450 830.232544 C 659.996399 830.232544 830.232544 659.996399 830.232544 450 C 830.232544 240.003601 659.996399 69.767456 450 69.767456 C 240.003586 69.767456 69.767448 240.003601 69.767448 450 C 69.767448 659.996399 240.003586 830.232544 450 830.232544 Z"/>
        <path id="Shape-Middle" fill="#1a1b1e" fill-rule="evenodd" stroke="none" d="M 450 668 C 329.602112 668 232 570.397949 232 450 C 232 329.602051 329.602112 232 450 232 C 570.397888 232 668 329.602051 668 450 C 668 570.397949 570.397888 668 450 668 Z M 450 634.201538 C 551.731567 634.201538 634.201599 551.731567 634.201599 450 C 634.201599 348.268433 551.731567 265.798401 450 265.798401 C 348.268402 265.798401 265.798462 348.268433 265.798462 450 C 265.798462 551.731567 348.268402 634.201538 450 634.201538 Z"/>
    </g>
</svg>
